<?xml version="1.0" encoding="UTF-8"?>
<svg id="Layer_1" xmlns="http://www.w3.org/2000/svg" version="1.1" viewBox="0 0 1024 1024">
  <!-- Generator: Adobe Illustrator 29.4.0, SVG Export Plug-In . SVG Version: 2.1.0 Build 152)  -->
  <defs>
    <style>
      .st0 {
        fill: #7650a1;
      }

      .st1 {
        fill: none;
        stroke: #7650a1;
        stroke-miterlimit: 10;
        stroke-width: 30px;
      }
    </style>
  </defs>
  <circle class="st1" cx="512" cy="512" r="475"/>
  <path class="st0" d="M512,62c-248.53,0-450,201.47-450,450s201.47,450,450,450,450-201.47,450-450S760.53,62,512,62ZM507.62,211.27c313.45,90.59,27.59,424.26,34.85,363.03,5.13-43.26,72.64-138.93-50.46-215.89-173.25-108.31-276.68,70.67-287.49,64.73-12.12-6.67,83.18-275.43,303.1-211.87ZM225.92,668.6c-125.15-297.62,317.59-287.38,264.7-254.54-37.37,23.2-155.24,31.37-138.76,174.21,23.21,201.04,229.38,168.19,231.47,180.22,2.34,13.5-269.61,108.92-357.42-99.89ZM819.68,619.76c-154.51,283.88-426.53-60.86-367.29-41.23,41.85,13.87,122.83,98.77,224.55-4.18,143.16-144.9-13.04-281.65-4.92-290.85,9.12-10.33,256.06,137.09,147.65,336.27Z"/>
</svg>